<svg width="72" height="72" fill="none" xmlns="http://www.w3.org/2000/svg"><path fill-rule="evenodd" clip-rule="evenodd" d="M38.278 49.772a2.72 2.72 0 01-2.717 2.724 2.717 2.717 0 01-2.714-2.724 2.714 2.714 0 115.43 0zm-2.28 18.156c-17.603 0-31.926-14.323-31.926-31.926 0-17.604 14.323-31.926 31.926-31.926 17.607 0 31.93 14.322 31.93 31.926 0 17.603-14.323 31.926-31.93 31.926zM0 36.002C0 55.85 16.15 72 35.998 72 55.85 72 72 55.85 72 36.002 72 16.15 55.85 0 35.998 0 16.15 0 0 16.15 0 36.002zm33.735 4.208V20.68a2.037 2.037 0 114.072 0v19.53a2.037 2.037 0 01-4.072 0z" fill="#8C2828"/></svg>