<svg width="48" height="48" fill="none" xmlns="http://www.w3.org/2000/svg"><path fill-rule="evenodd" clip-rule="evenodd" d="M23.957 3.876a.987.987 0 01-.985-.985c0-.535.45-.984.985-.984.548 0 .984.449.984.984a.979.979 0 01-.984.985zm-.013 22.616c-1.645 0-2.991-1.345-2.991-2.978V2.991A3 3 0 0123.944 0h2.98v23.514a2.994 2.994 0 01-2.98 2.978zM29.478.71l.013 6.393V23.55c.038 1.596 1.408 2.941 3.004 2.941 1.583 0 2.966-1.383 2.966-3.003 0-.112 0-.199-.012-.299V10.405c3.901 3.265 6.394 8.162 6.394 13.645 0 9.844-8.04 17.87-17.886 17.87-9.785 0-17.812-8.026-17.812-17.87 0-5.396 2.405-10.23 6.207-13.495v12.934c0 1.62 1.321 3.003 2.967 3.003 1.62 0 2.99-1.383 2.99-3.003V.76C7.816 3.327 0 12.785 0 24.05 0 37.296 10.782 48 24.032 48 37.206 48 48 37.296 48 24.05 48 12.71 40.048 3.19 29.478.71z" fill="#C8AF64"/></svg>