<svg width="14" height="18" fill="none" xmlns="http://www.w3.org/2000/svg"><path fill-rule="evenodd" clip-rule="evenodd" d="M11.361 4.816v-.462A4.357 4.357 0 007.007 0C4.6 0 2.637 1.952 2.637 4.354v.462C1.119 5.246 0 6.626 0 8.277v5.492c0 1.99 1.617 3.61 3.61 3.61h6.78c1.993 0 3.61-1.62 3.61-3.61V8.277c0-1.651-1.121-3.033-2.639-3.461zm.098 8.953c0 .587-.482 1.068-1.069 1.068H3.61a1.072 1.072 0 01-1.07-1.067V8.277c0-.587.482-1.068 1.069-1.068h6.78c.587 0 1.069.48 1.069 1.068v5.492zM7.007 2.54a1.8 1.8 0 00-1.825 1.813v.313h3.636v-.313c0-.999-.812-1.813-1.81-1.813z" fill="#C8AF64"/></svg>