<svg width="16" height="16" fill="none" xmlns="http://www.w3.org/2000/svg"><path fill-rule="evenodd" clip-rule="evenodd" d="M8.5 8.562a2.846 2.846 0 01-2.849-2.834A2.846 2.846 0 018.5 2.893a2.846 2.846 0 012.849 2.835A2.846 2.846 0 018.5 8.562zm3.651.154c.675-.817 1.099-1.85 1.099-2.988C13.25 3.12 11.119 1 8.5 1S3.75 3.12 3.75 5.728c0 1.138.424 2.171 1.099 2.988A6.406 6.406 0 002 14.053c0 .524.425.947.951.947a.948.948 0 00.951-.947A4.54 4.54 0 016.444 9.97a4.715 4.715 0 002.056.485c.74 0 1.43-.183 2.056-.485a4.538 4.538 0 012.542 4.083c0 .524.424.947.95.947a.948.948 0 00.952-.947c0-2.19-1.09-4.152-2.849-5.337z" fill="#C8AF64"/></svg>