<svg width="159" height="52" fill="none" xmlns="http://www.w3.org/2000/svg"><g clip-path="url(#clip0_70:838)"><path d="M158.968 44.973A7.027 7.027 0 01151.941 52H7.027A7.027 7.027 0 010 44.973V7.027A7.027 7.027 0 017.027 0h144.914a7.027 7.027 0 017.027 7.027v37.946z" fill="#1D1D1B"/><path d="M27.456 8.892H14.505a2.797 2.797 0 00-2.797 2.797v28.69a2.798 2.798 0 002.797 2.797h12.951a2.797 2.797 0 002.797-2.797V11.702a2.796 2.796 0 00-2.797-2.81zm-6.474 32.252a1.865 1.865 0 110-3.73 1.865 1.865 0 010 3.73zm7.077-4.662H13.905v-21.16h14.157l-.003 21.16zM40.87 14.005l-.786 2.383H39.08l2.567-7.567h1.181l2.586 7.577h-1.05l-.811-2.384-2.683-.01zm2.487-.765l-.752-2.175c-.159-.498-.27-.933-.386-1.384h-.03c-.103.439-.228.911-.374 1.371l-.74 2.191 2.282-.003zm3.07-2.294l1.066 3.05c.18.503.327.953.442 1.404h.034c.121-.45.28-.901.46-1.405l1.057-3.049h1.035l-2.139 5.442h-.932l-2.067-5.442h1.044zm8.647 4.14c-.005.436.02.87.078 1.303h-.886l-.093-.684h-.032a2.014 2.014 0 01-1.666.808 1.553 1.553 0 01-1.662-1.554c0-1.315 1.168-2.036 3.273-2.023v-.112c0-.45-.125-1.271-1.244-1.259a2.63 2.63 0 00-1.43.404l-.21-.662A3.54 3.54 0 0153 10.835c1.675 0 2.079 1.137 2.079 2.228l-.006 2.023zm-.967-1.473c-1.081-.025-2.306.168-2.306 1.225a.868.868 0 00.932.932 1.374 1.374 0 001.337-.91c.032-.101.047-.206.047-.311l-.01-.936zm2.968-3.667a.622.622 0 11.013 0h-.013zm-.472 6.442v-5.442h.988v5.442h-.988zm2.573-7.981h.992v7.982h-.992V8.407zm6.409 6.679c-.004.436.023.871.08 1.303h-.888l-.09-.684h-.034a2.014 2.014 0 01-1.666.808 1.553 1.553 0 01-1.663-1.554c0-1.315 1.169-2.036 3.273-2.023v-.112c0-.45-.125-1.271-1.243-1.259-.505-.006-1 .135-1.427.404l-.22-.662a3.55 3.55 0 011.799-.472c1.675 0 2.079 1.137 2.079 2.228v2.023zm-.966-1.473c-1.079-.025-2.307.168-2.307 1.225a.867.867 0 00.933.932 1.377 1.377 0 001.34-.91c.03-.101.045-.206.043-.311l-.01-.936zm2.495-5.206h.989v3.419h.024a2.02 2.02 0 011.865-.991c1.349 0 2.294 1.125 2.294 2.766 0 1.958-1.243 2.924-2.452 2.924a1.952 1.952 0 01-1.822-1.022h-.028l-.059.898h-.851c.034-.37.043-.932.043-1.405l-.003-6.589zm.989 5.803c0 .12.012.24.037.357a1.532 1.532 0 001.482 1.16c1.048 0 1.654-.843 1.654-2.092 0-1.104-.563-2.036-1.62-2.036a1.554 1.554 0 00-1.495 1.215 1.532 1.532 0 00-.058.417v.979zm5.352-5.803h.991v7.982h-.991V8.407zm3.139 5.43c.022 1.34.864 1.89 1.865 1.89a3.757 3.757 0 001.507-.27l.177.695a4.408 4.408 0 01-1.821.348c-1.663 0-2.676-1.112-2.676-2.74 0-1.63.979-2.947 2.564-2.947 1.775 0 2.238 1.554 2.238 2.564.003.158-.009.316-.034.472l-3.82-.012zm2.887-.709c0-.621-.258-1.607-1.361-1.607-1.01 0-1.436.933-1.517 1.607h2.878zm6.669 3.385c-1.463 0-2.61-1.079-2.61-2.797 0-1.822 1.206-2.89 2.7-2.89 1.555 0 2.618 1.137 2.618 2.796 0 2.024-1.405 2.9-2.698 2.9l-.01-.01zm.032-.743c.932 0 1.653-.886 1.653-2.123 0-.932-.46-2.082-1.628-2.082-1.169 0-1.666 1.078-1.666 2.113 0 1.194.674 2.092 1.632 2.092h.009zm3.869-3.35c0-.572 0-1.023-.046-1.474h.88l.055.89h.022a2.015 2.015 0 011.796-1.014c.756 0 1.927.45 1.927 2.319v3.248h-.991v-3.136c0-.877-.326-1.62-1.259-1.62a1.452 1.452 0 00-1.395 1.474v3.282h-.989v-3.97zm9.703-2.776v1.302h1.415v.755h-1.415v2.934c0 .675.19 1.057.74 1.057.194.009.388-.014.575-.068l.044.755a2.747 2.747 0 01-.874.134 1.428 1.428 0 01-1.072-.414c-.267-.31-.38-.79-.38-1.43v-2.968h-.845v-.755h.846v-1l.966-.302zm2.474-1.237h.989v3.394h.021c.166-.294.412-.536.709-.696a1.925 1.925 0 011.013-.283c.731 0 1.899.45 1.899 2.328v3.239h-.988v-3.124c0-.889-.311-1.622-1.262-1.622a1.43 1.43 0 00-1.324.991 1.187 1.187 0 00-.068.473v3.282h-.989V8.407zm6.745 5.43c.022 1.34.867 1.89 1.865 1.89a3.758 3.758 0 001.507-.27l.18.695a4.434 4.434 0 01-1.824.348c-1.663 0-2.676-1.112-2.676-2.74 0-1.63.979-2.947 2.564-2.947 1.778 0 2.241 1.554 2.241 2.564a2.67 2.67 0 01-.034.472l-3.823-.012zm2.89-.709c0-.621-.258-1.607-1.361-1.607-1.01 0-1.439.933-1.517 1.607h2.878zm4.917-3.182a.639.639 0 01-.579-.402.653.653 0 01.008-.485.645.645 0 01.349-.337.64.64 0 01.244-.044.62.62 0 01.621.621.622.622 0 01-.643.64v.007zm-.475 6.443v-5.443h.991v5.443h-.991zm2.617-7.479c.62-.108 1.25-.16 1.88-.155.966 0 1.675.224 2.123.622a2.05 2.05 0 01.677 1.585 2.181 2.181 0 01-.597 1.616c-.519.553-1.361.833-2.318.833a3.58 3.58 0 01-.786-.065v3.033h-.979V8.911zm.966 3.64c.266.061.539.088.811.08 1.191 0 1.899-.583 1.899-1.606 0-1.022-.708-1.495-1.787-1.495a4.968 4.968 0 00-.932.078l.009 2.943zm4.87-4.143h.992v3.394h.022c.165-.294.411-.536.708-.696a1.922 1.922 0 011.01-.283c.734 0 1.902.45 1.902 2.328v3.239h-.988v-3.124c0-.889-.311-1.622-1.262-1.622a1.438 1.438 0 00-1.327.991 1.204 1.204 0 00-.065.473v3.282h-.992V8.407zm8.401 8.106c-1.464 0-2.61-1.079-2.61-2.797 0-1.822 1.205-2.89 2.7-2.89 1.554 0 2.617 1.137 2.617 2.796 0 2.024-1.404 2.9-2.697 2.9l-.01-.01zm.034-.743c.933 0 1.651-.886 1.651-2.123 0-.932-.46-2.082-1.629-2.082-1.168 0-1.666 1.078-1.666 2.113 0 1.194.675 2.092 1.632 2.092h.012zm3.867-3.35c0-.572 0-1.023-.044-1.473h.877l.056.888h.022a2.009 2.009 0 011.799-1.013c.752 0 1.921.45 1.921 2.319v3.248h-.979v-3.136c0-.877-.327-1.62-1.259-1.62a1.43 1.43 0 00-1.327 1.01c-.047.15-.07.307-.068.463v3.283h-.989l-.009-3.97zm6.76 1.417c.022 1.34.864 1.89 1.865 1.89a3.732 3.732 0 001.504-.27l.18.695a4.404 4.404 0 01-1.821.348c-1.663 0-2.676-1.112-2.676-2.74 0-1.63.979-2.947 2.564-2.947 1.775 0 2.238 1.554 2.238 2.564a2.58 2.58 0 01-.035.472l-3.819-.012zm2.887-.709c0-.621-.258-1.607-1.358-1.607-1.013 0-1.442.933-1.52 1.607h2.878zM45.53 21.523l-6.668 19.62h3.056l1.989-6.026h6.455l2.048 6.027h3.143L48.858 21.52l-3.329.003zm1.581 3.226c.227.877.47 1.787.78 2.77l1.797 5.202h-5.113l1.772-5.237c.27-.849.525-1.765.764-2.735zm17.063 1.861c-2.023 0-3.643.78-4.721 2.263l-.118-1.951h-2.717v.251c.081 1.216.115 2.555.115 4.476v15.127h2.969v-7.059a5.224 5.224 0 004.074 1.738 6.119 6.119 0 004.5-1.915c1.3-1.374 1.987-3.35 1.987-5.71 0-2.085-.597-3.89-1.725-5.214a5.65 5.65 0 00-4.364-2.005zm-.74 2.46c2.648 0 3.832 2.451 3.832 4.879 0 3.136-1.513 5.081-3.944 5.081a3.602 3.602 0 01-3.5-2.753 3.821 3.821 0 01-.105-.964v-2.387c.012-.247.044-.492.096-.733 0-.081.028-.162.04-.24a3.761 3.761 0 013.581-2.884zm16.028-2.46c-2.02 0-3.64.78-4.72 2.263l-.119-1.951H71.91l.015.251c.081 1.215.112 2.555.112 4.476v15.126h2.972v-7.058a5.212 5.212 0 004.04 1.744 6.132 6.132 0 004.503-1.915c1.3-1.374 1.986-3.35 1.986-5.71 0-2.085-.596-3.89-1.727-5.214a5.648 5.648 0 00-4.349-2.011zm-.736 2.46c2.645 0 3.829 2.451 3.829 4.879 0 3.136-1.51 5.081-3.944 5.081a3.6 3.6 0 01-3.497-2.753 3.821 3.821 0 01-.105-.964v-2.387c.01-.247.041-.492.093-.733l.043-.24a3.758 3.758 0 013.58-2.884zm19.891.767c-2.77-1.072-3.658-1.915-3.658-3.475 0-1.315 1.044-2.635 3.375-2.635a6.773 6.773 0 013.487.873l.252.155.836-2.486-.165-.096c-.497-.293-1.914-.973-4.323-.973-3.789 0-6.434 2.238-6.434 5.436 0 2.58 1.657 4.385 5.213 5.678 2.52.932 3.459 1.905 3.459 3.559 0 1.864-1.449 3.033-3.776 3.033a8.143 8.143 0 01-4.28-1.212l-.255-.165-.799 2.533.146.1c1.122.749 3.233 1.29 5.02 1.29 5.103 0 6.912-3.108 6.912-5.778 0-2.739-1.455-4.432-5.01-5.837zm10.356-6.294l-2.912.914v2.465h-2.133v2.374h2.133v7.27c0 1.756.335 2.986 1.025 3.767a3.814 3.814 0 002.875 1.128c.779.01 1.554-.11 2.294-.355l.168-.059-.143-2.377-.286.087a4.478 4.478 0 01-1.38.158c-1.15 0-1.641-.727-1.641-2.436v-7.183h3.58v-2.374h-3.58v-3.379zm10.94 3.067c-4.155 0-7.055 3.109-7.055 7.538 0 4.307 2.797 7.313 6.837 7.313h.028c3.401 0 7.056-2.369 7.056-7.568 0-2.114-.653-3.929-1.89-5.253a6.605 6.605 0 00-4.976-2.03zm-.087 2.344c2.673 0 3.888 2.605 3.888 5.026 0 2.974-1.66 5.137-3.944 5.137h-.028c-2.253 0-3.888-2.126-3.888-5.053-.006-2.555 1.237-5.11 3.972-5.11zm16.037-2.207l-.18-.043a2.85 2.85 0 00-.737-.093 4.233 4.233 0 00-3.729 2.39l-.087-2.08h-2.664l.016.252c.077 1.175.112 2.487.112 4.274l-.022 9.697h2.971v-7.562a7.943 7.943 0 01.081-1.153c.336-1.818 1.554-2.993 3.123-2.993.267.002.534.019.799.05l.311.034.006-2.773zm6.676-.164c-3.953 0-6.716 3.158-6.716 7.68 0 4.35 2.747 7.17 6.999 7.17a11.414 11.414 0 004.702-.901l.178-.081-.569-2.213-.249.1a9.21 9.21 0 01-3.729.664c-1.29 0-4.265-.425-4.448-4.304l9.585.028.037-.19c.069-.41.099-.827.091-1.243.009-3.092-1.533-6.71-5.881-6.71zm-.199 2.26a2.93 2.93 0 012.176.83c.855.87 1.004 2.15 1.022 2.762h-6.766c.274-1.712 1.346-3.593 3.568-3.593z" fill="#fff"/></g><defs><clipPath id="clip0_70:838"><path fill="#fff" d="M0 0h158.968v52H0z"/></clipPath></defs></svg>