<svg width="286" height="28" fill="none" xmlns="http://www.w3.org/2000/svg"><path fill-rule="evenodd" clip-rule="evenodd" d="M45.207 13.038l.563-.035.511-.035c.104-.02.21-.034.316-.041h.09V4.499h2.743v18.99h-2.743v-8.04h-1.736l-.947.035h-.819a9.817 9.817 0 01-4.562-.88C37.195 13.807 37 11.797 37 10.445V4.5h2.743v5.642c0 .693.083 1.989.834 2.432a6.86 6.86 0 003.051.513h.752l.85-.042-.023-.006zm10.656-.596h8.943v2.508h-8.965v6.023h10.167v2.516H53.09V4.499h12.64v2.516h-9.89l.023 5.427zm13.685 8.531c1.436 0 2.074-1.067 2.39-2.232a23.51 23.51 0 00.751-5.149v-.901l.166-8.192h11.16v18.99h-2.75V7.015h-5.697l-.158 6.237c0 .61-.022 1.22-.068 1.83a19.2 19.2 0 01-.21 2.08 12.514 12.514 0 01-1.405 4.373 3.765 3.765 0 01-1.563 1.58 4.209 4.209 0 01-2.255.499h-.511l-.541-.049h-.203V20.87l.255.035.339.048c.098.02.2.027.3.021zM89.493 15.2a5.249 5.249 0 01-1.818-1.643 5.66 5.66 0 01-.834-3.292v-.402a6.45 6.45 0 011.397-3.659c1.06-1.386 3.007-1.705 4.758-1.705h7.515v18.99h-2.75v-7.388h-3.54l-4.171 7.388h-3.352l4.66-7.68a5.328 5.328 0 01-1.864-.61zm16.902-8.185v5.15h5.035c1.563 0 3.42.256 4.457 1.455a5.793 5.793 0 011.458 3.126c.031.192.051.387.06.582v.575c0 .194 0 .589-.045.88a5.229 5.229 0 01-.188.95 5.43 5.43 0 01-1.654 2.592c-1.044.963-2.66 1.178-4.073 1.164h-7.793V4.499h12.588v2.516h-9.845zm16.413 11.858L131.571 4.5h2.653v18.99h-2.743V9.018l-8.755 14.471h-2.661V4.499h2.743v14.374zm17.661-4.124v8.74h-2.751V4.499h2.751v7.742h8.154V4.499h2.743v18.99h-2.751v-8.74h-8.146zm24.8-1.323a4.92 4.92 0 012.217 1.434 4.754 4.754 0 011.014 3.244c0 1.282-.225 2.772-1.285 3.722a6.056 6.056 0 01-2.795 1.434c-.398.1-.806.163-1.218.188-.361 0-.714.041-1.074.041h-7.463V4.499h7.741c1.255 0 2.758.187 3.69 1.053.921.828 1.484 1.937 1.585 3.12v.769c.048 1.007-.278 2-.924 2.813a4.238 4.238 0 01-1.503 1.172h.015zm9.108-.991h8.966v2.515h-8.988v6.023h10.16v2.516h-12.911V4.499h12.641v2.516h-9.89l.022 5.42zm27.994 7.443a7.478 7.478 0 01-2.254 2.82c-1.313.926-2.943 1.384-4.592 1.29h-.594l-.969-.097a7.227 7.227 0 01-2.54-.825 8.117 8.117 0 01-2.939-2.827c-1.089-1.657-1.322-3.992-1.322-5.892v-.741c0-.402.045-.797.075-1.2a11.73 11.73 0 01.654-3.076 9.414 9.414 0 012.397-3.646C191.625 4.381 193.556 4 195.427 4c1.669 0 3.555.263 4.817 1.345a6.8 6.8 0 012.105 2.959c.12.366.216.739.285 1.116.06.34.105.693.136 1.025v.23h-2.796v-.195a5.58 5.58 0 00-.083-.603 4.105 4.105 0 00-.158-.624 4.362 4.362 0 00-1.345-1.892 4.496 4.496 0 00-2.931-.866 4.593 4.593 0 00-2.402.504c-.731.38-1.325.95-1.709 1.638a11.103 11.103 0 00-1.292 5.593 9.439 9.439 0 001.405 5.066 4.283 4.283 0 001.732 1.666c.738.392 1.581.58 2.432.545a4.284 4.284 0 001.825-.297 3.969 3.969 0 001.481-1.027 5.123 5.123 0 001.285-3.07v-.194h2.819v.221c-.036.43-.107.856-.211 1.276-.108.5-.266.99-.473 1.462h.022zm7.613-12.863h-5.561V4.499h13.828v2.516h-5.554v16.474h-2.713V7.015zm14.076 0v5.15h5.028c1.563 0 3.419.256 4.464 1.455a5.777 5.777 0 011.45 3.126c.035.192.055.387.06.582v.575c0 .194 0 .589-.052.88a4.61 4.61 0 01-.188.95 5.471 5.471 0 01-1.646 2.592c-1.045.963-2.668 1.178-4.081 1.164h-7.786V4.499h12.588v2.516h-9.837zm16.984 11.664l-1.615 4.81h-2.931l6.62-18.99h2.789l6.62 18.99h-2.938l-1.631-4.81h-6.914zm16.286-3.93v8.74h-2.781V4.499h2.781v7.742h8.154V4.499h2.743v18.99h-2.743v-8.74h-8.154zM97.745 13.592V7.015h-4.592a3.718 3.718 0 00-2.344.617c-.453.374-.79.852-.977 1.386-.07.227-.12.459-.15.693a5.31 5.31 0 00-.046.596 3.735 3.735 0 00.752 2.315c.638.845 2.029.99 3.05.99l4.307-.02zm8.65 1.081v6.3h4.577a4.967 4.967 0 002.577-.637c.85-.513 1.023-1.546 1.023-2.412a3.105 3.105 0 00-.624-2.128 3.218 3.218 0 00-1.391-.908 3.538 3.538 0 00-.849-.173 6.56 6.56 0 00-.751-.042h-4.562zm50.998.229v6.071h4.937a4.953 4.953 0 002.308-.644c.856-.479.999-1.588.999-2.426a2.703 2.703 0 00-.172-1.241 2.897 2.897 0 00-.722-1.06 4.8 4.8 0 00-2.826-.693l-4.524-.007zm0-7.887v5.371h4.389c.423.043.85.003 1.256-.116.405-.12.778-.316 1.096-.577a2.828 2.828 0 00.752-1.629 1.177 1.177 0 000-.145v-.735a2.335 2.335 0 00-1-1.656 3.519 3.519 0 00-2.014-.465l-4.479-.048zm66.667 7.658v6.3h4.569a4.939 4.939 0 002.578-.637c.849-.513 1.029-1.546 1.029-2.412a3.143 3.143 0 00-.623-2.128 3.314 3.314 0 00-1.391-.908 3.484 3.484 0 00-.841-.173 6.731 6.731 0 00-.752-.042h-4.569zM286 23.49l-8.838-10.188 8.334-8.802h-3.366l-7.373 8.109v-8.11h-2.75v18.99h2.75v-9.294l7.688 9.294H286zm-44.197-7.291h5.396l-2.698-8.227-2.698 8.227zM17.26.42v13.29a1.736 1.736 0 001.755 1.61 1.743 1.743 0 001.721-1.645c.004-.06.004-.119 0-.178V6.058a10.29 10.29 0 013.732 7.945 10.365 10.365 0 01-3.05 7.344 10.412 10.412 0 01-7.36 3.042 10.43 10.43 0 01-7.362-3.042 10.385 10.385 0 01-3.05-7.344 10.302 10.302 0 013.618-7.831v7.503a1.75 1.75 0 001.727 1.751 1.786 1.786 0 001.755-1.75V.447a14 14 0 00-8.225 5.59A13.942 13.942 0 004.698 24.47 14.019 14.019 0 0014 28c3.43 0 6.74-1.256 9.302-3.529A13.942 13.942 0 0025.48 6.038a14 14 0 00-8.225-5.59L17.26.42zm-3.224 15.006a1.75 1.75 0 01-1.748-1.737V1.744A1.742 1.742 0 0114.035 0h1.74v13.69a1.742 1.742 0 01-1.74 1.736zm0-13.162a.58.58 0 01-.559-.696.576.576 0 01.794-.41.577.577 0 01-.228 1.106h-.007z" fill="#C4C4C4"/></svg>