<svg width="248" height="28" fill="none" xmlns="http://www.w3.org/2000/svg"><path d="M28.204 0H0v27.633h28.204V0z" fill="#C4AE63"/><path fill-rule="evenodd" clip-rule="evenodd" d="M16.99 1.434V13.55a1.584 1.584 0 003.16-.194V6.574a9.397 9.397 0 013.394 7.242 9.467 9.467 0 11-18.936 0 9.41 9.41 0 013.29-7.138v6.84a1.597 1.597 0 001.57 1.596 1.623 1.623 0 001.597-1.596V1.46a12.733 12.733 0 105.918 0l.007-.026zm-2.933 13.68a1.59 1.59 0 01-1.59-1.583V2.64a1.59 1.59 0 011.59-1.59h1.583v12.48a1.59 1.59 0 01-1.583 1.583zm0-11.999a.525.525 0 11.492-.319.52.52 0 01-.486.319h-.006z" fill="#fff"/><path d="M247.994 25.55H32.76v2.005h215.234V25.55z" fill="#C4AE63"/><path fill-rule="evenodd" clip-rule="evenodd" d="M40.067 12.616l.487-.033.44-.032c.09-.02.182-.033.273-.04h.078v-7.89h2.369v17.781h-2.369v-7.528h-1.499l-.817.033h-.708a7.911 7.911 0 01-3.939-.825c-1.233-.746-1.402-2.628-1.402-3.893V4.62h2.369v5.282c0 .65.071 1.863.72 2.278.826.374 1.73.539 2.635.48h.649l.733-.039-.02-.006zm9.202-.558h7.723v2.349H49.25v5.64h8.78v2.355H46.874V4.621H57.79v2.355h-8.54l.02 5.082zm11.818 7.988c1.24 0 1.79-.999 2.063-2.09.381-1.58.599-3.196.65-4.821v-.844l.142-7.67h9.637v17.781h-2.375V6.976h-4.92l-.135 5.84c0 .572-.02 1.143-.059 1.714a19.445 19.445 0 01-.181 1.947 12.428 12.428 0 01-1.214 4.095 3.407 3.407 0 01-3.297 1.947h-.441l-.467-.045h-.176v-2.525l.221.032.292.046a.951.951 0 00.26.02zm17.223-5.405a4.685 4.685 0 01-1.57-1.539 5.653 5.653 0 01-.72-3.082v-.376a6.347 6.347 0 011.206-3.427c.915-1.298 2.596-1.596 4.108-1.596h6.49v17.781h-2.375v-6.918h-3.057l-3.602 6.918h-2.894l4.023-7.19a4.392 4.392 0 01-1.61-.571zm14.595-7.665v4.822h4.348c1.35 0 2.953.24 3.849 1.363a5.644 5.644 0 011.259 2.927c.026.18.044.362.051.545v.539c0 .181 0 .551-.038.824a5.26 5.26 0 01-.163.889 5.15 5.15 0 01-1.427 2.427c-.903.902-2.298 1.103-3.518 1.09h-6.73V4.621h10.871v2.355h-8.502zm14.173 11.104l7.567-13.46h2.291v17.782h-2.369V8.852l-7.56 13.55h-2.297V4.621h2.368V18.08zm15.251-3.861v8.183h-2.375V4.621h2.375v7.248h7.041V4.622h2.369v17.781h-2.375V14.22h-7.035zm21.416-1.24a4.232 4.232 0 011.914 1.344c.633.88.943 1.954.876 3.037 0 1.2-.194 2.596-1.109 3.485a5.105 5.105 0 01-2.415 1.343 5.208 5.208 0 01-1.051.175c-.311 0-.616.04-.928.04h-6.444V4.62h6.684c1.084 0 2.382.175 3.187.986a4.581 4.581 0 011.369 2.92v.72a4.153 4.153 0 01-.798 2.635 3.715 3.715 0 01-1.298 1.097h.013zm7.865-.928h7.742v2.356h-7.761v5.64h8.774v2.355h-11.15V4.621h10.916v2.355h-8.54l.019 5.075zm24.174 6.97a6.93 6.93 0 01-1.947 2.641 5.932 5.932 0 01-3.965 1.207h-.513l-.837-.09a5.906 5.906 0 01-2.193-.773 7.298 7.298 0 01-2.538-2.648c-.941-1.55-1.142-3.738-1.142-5.516v-.694c0-.377.039-.746.065-1.123.067-.98.257-1.948.564-2.881a8.918 8.918 0 012.071-3.414c1.155-1.22 2.823-1.577 4.439-1.577 1.44 0 3.069.247 4.159 1.26a6.383 6.383 0 011.817 2.77c.105.343.187.692.247 1.045.052.318.091.65.117.96v.215h-2.414v-.182a5.364 5.364 0 00-.072-.565 4.178 4.178 0 00-.136-.584 4.096 4.096 0 00-1.162-1.771 3.67 3.67 0 00-2.531-.811 3.71 3.71 0 00-3.549 2.005 11.135 11.135 0 00-1.117 5.237 9.413 9.413 0 001.214 4.744 3.857 3.857 0 003.595 2.07 3.44 3.44 0 002.856-1.24 5.017 5.017 0 001.109-2.874v-.182h2.434v.208a8.16 8.16 0 01-.182 1.194c-.093.468-.23.926-.409 1.369h.02zm6.574-12.045h-4.802V4.621h11.94v2.355h-4.795v15.426h-2.343V6.976zm12.155 0v4.822h4.341c1.35 0 2.953.24 3.855 1.363a5.622 5.622 0 011.253 2.927c.03.18.047.362.052.545v.539c0 .181 0 .551-.046.824a4.629 4.629 0 01-.162.889 5.188 5.188 0 01-1.421 2.427c-.902.902-2.304 1.103-3.524 1.09h-6.723V4.621h10.87v2.355h-8.495zm14.666 10.922l-1.395 4.504h-2.531l5.718-17.781h2.407l5.718 17.781h-2.538l-1.408-4.504h-5.971zm14.063-3.68v8.184h-2.401V4.621h2.401v7.248h7.042V4.622h2.368v17.781h-2.368V14.22h-7.042zM85.436 13.136v-6.16H81.47a3.024 3.024 0 00-2.024.578 2.97 2.97 0 00-.844 1.298c-.06.212-.104.43-.13.649a5.396 5.396 0 00-.039.558c-.015.772.212 1.53.65 2.167.551.792 1.752.928 2.634.928l3.719-.02zm7.47 1.012v5.9h3.951a4.03 4.03 0 002.226-.598c.734-.48.883-1.447.883-2.258a3.08 3.08 0 00-.539-1.992 2.771 2.771 0 00-1.2-.85 2.86 2.86 0 00-.734-.163 5.235 5.235 0 00-.649-.039h-3.939zm44.038.214v5.685h4.263a4.026 4.026 0 001.993-.603c.739-.448.863-1.486.863-2.271a2.734 2.734 0 00-.773-2.155 3.892 3.892 0 00-2.44-.649l-3.906-.007zm0-7.385v5.03h3.79a2.626 2.626 0 002.031-.65 2.75 2.75 0 00.649-1.524 1.044 1.044 0 000-.137v-.688a2.391 2.391 0 00-.137-.572 2.163 2.163 0 00-.726-.98 2.85 2.85 0 00-1.74-.434l-3.867-.046zm57.569 7.171v5.9h3.946a4.001 4.001 0 002.225-.598c.734-.48.89-1.447.89-2.258a3.127 3.127 0 00-.539-1.992 2.85 2.85 0 00-1.201-.85 2.803 2.803 0 00-.726-.163 5.372 5.372 0 00-.649-.039h-3.946zM248 22.402l-7.632-9.54 7.197-8.241h-2.907l-6.366 7.592V4.621h-2.375v17.781h2.375V13.7l6.639 8.703H248zm-38.165-6.827h4.659l-2.329-7.703-2.33 7.703z" fill="#1A1A18"/></svg>